<?xml version="1.0" encoding="UTF-8"?>
<!-- Created with Inkscape (http://www.inkscape.org/) -->
<svg width="1200" height="200" version="1.1" viewBox="0 0 317.5 52.917" xmlns="http://www.w3.org/2000/svg">
 <g transform="matrix(9.2521 0 0 9.2521 -490.28 -1181.5)" fill-rule="evenodd">
  <text transform="scale(.26458)" fill="#ffffff" font-family="DIMProductions" font-size="21.333px" stroke-width="3.7795" style="paint-order:fill markers stroke;shape-inside:url(#rect1);white-space:pre" xml:space="preserve"/>
  <path d="m56.414 127.99v7e-4c-0.39578 2.4e-4 -0.7434 0.0903-1.0649 0.27613-0.17101 0.0989-1.2562 1.0651-1.4664 1.3057-0.14223 0.16277-0.20706 0.31458-0.20706 0.48483 0 0.14871 0.13148 0.36127 0.30254 0.35225 0.01344-8.7e-4 0.04468-0.0185 0.08869-0.0481h-1.53e-4c-0.08687 0.0371-0.10046 0.0334-0.17417-0.0469-0.10602-0.11557-0.10391-0.27807 0.0063-0.48552 0.06058-0.11399 0.19943-0.26134 0.46546-0.49399 0.20851-0.18234 0.38716-0.33146 0.39703-0.33146 0.0099 0-0.0039 0.0672-0.03064 0.14941-0.05676 0.17454-0.03767 0.31495 0.05849 0.42956 0.10468 0.12479 0.19519 0.10289 0.47492-0.11484 0.22958-0.1787 0.56982-0.36696 0.74987-0.415l0.07022-0.0188-0.05997 0.29169c-0.033 0.16041-0.07813 0.48282-0.10033 0.71649-0.04615 0.48567-0.05984 1.6282-0.02156 1.7966 0.033 0.14515 0.22811 0.35846 0.40584 0.44372 0.25083 0.12034 0.64554 0.0649 1.1963-0.16808l0.21815-0.0924-0.20136 0.1925c-0.4278 0.40886-0.89333 0.66445-1.43 0.78508-0.32687 0.0735-0.4357 0.0768-0.60898 0.0188-0.17052-0.0571-0.30601-0.10411-0.4195-0.3108-0.11749-0.21398-0.04546-1.6982 0.12911-2.4766 0.03688-0.16444 0.07613-0.33947 0.08721-0.389 0.01969-0.088 0.01755-0.0897-0.09389-0.0685-0.01222 2e-3 -0.02519 5e-3 -0.03889 9e-3h-1.05e-4c-0.0098 0.0579-0.02702 0.14244-0.04818 0.23449-0.21322 0.92714-0.31164 2.5031-0.17511 2.8037 0.07009 0.15433 0.27288 0.33824 0.42619 0.38648 0.2806 0.0883 0.96778-0.0792 1.4199-0.34612 0.16361-0.0966 0.57342-0.42683 0.95128-0.81984l0.40955-0.426-0.13059 0.50756c-0.09691 0.37661-0.12262 0.52851-0.09974 0.58868 0.03684 0.0969 0.19123 0.22522 0.27104 0.22522 0.03138 0 0.23319-0.18728 0.44843-0.41614l0.39133-0.41613 0.12029-0.69105c0.06617-0.3801 0.13028-0.76324 0.14248-0.85144 0.01816-0.13122 0.02641-0.15855 0.1966-0.27797-0.0074-0.20611 0.01074-0.41064 0.02662-0.61582l0.09746 0.0769c0.05358 0.0423 0.11937 0.0768 0.14624 0.0768 0.10145 0 0.30132-0.1017 0.5804-0.2955 0.44781-0.31096 0.68243-0.40176 0.7311-0.28282 0.03265 0.0798-0.08152 0.48761-0.27946 0.99778-0.09958 0.25667-0.21099 0.56796-0.24756 0.69173-0.12373 0.41865-0.06645 0.73579 0.15164 0.83942 0.04615 0.0219 0.08915 0.0425 0.10613 0.0507 0.06345-0.10517 0.09643-0.19994 0.16635-0.39812 0.14426-0.40888 0.48989-1.1904 0.56144-1.2695 0.09465-0.10458 0.15447-0.13043 0.19522-0.0811 0.0064-0.0306 0.05229-0.10221 0.14748-0.23835 0.15474-0.22134 0.34117-0.42332 0.39063-0.42332 0.04954 0 0.02776 0.20762-0.04295 0.4096-0.03845 0.10986-0.16113 0.39896-0.27257 0.64246-0.30273 0.66144-0.33659 0.76363-0.31239 0.94301 0.02405 0.17819 0.12114 0.37317 0.21726 0.4363 0.03431 0.0225 0.04873 0.0365 0.02165 0.0876 0.14211-0.20475 0.27355-0.40265 0.33948-0.51652 0.11321-0.19553 0.3264-0.47462 0.5134-0.68302 0.21238-0.30186 0.61131-0.78641 0.75587-0.91038 0.08441-0.0724 0.08872-0.0732 0.05383-0.0102-0.11597 0.20915-0.26778 0.42213-0.4308 0.60739 0.0031-8e-3 0.0044-0.0122 0.0035-0.0133h-5.2e-5c-0.0068-7e-3 -0.07216 0.0348-0.1453 0.0927-0.06372 0.0505-0.14734 0.13412-0.23696 0.234-0.03138 0.0446-0.0587 0.0852-0.08053 0.12014-0.01349 0.0216 0.10056-0.0776 0.25346-0.22028 0.06914-0.0645 0.13807-0.13597 0.20512-0.2121 4.8e-5 -1e-4 1e-4 -2.9e-4 1.53e-4 -3.8e-4 8e-6 -3e-5 4.8e-5 -1e-4 4.8e-5 -2e-4h5.2e-5v-5e-5h4.8e-5c-9e-6 2e-5 -4.8e-5 3e-5 -4.8e-5 5e-5 -5.2e-5 8e-5 -5.2e-5 2e-4 -1e-4 3.9e-4 -5.3e-5 5e-5 -1.05e-4 9e-5 -1.53e-4 1.9e-4 -0.02091 0.0513-0.11358 0.2242-0.22805 0.42396-0.33027 0.57633-0.37484 0.72276-0.37484 1.2314 0 0.45329 0.02911 0.53673 0.23003 0.65924 0.25119 0.15316 0.57564 0.0255 1.0528-0.4142 0.1607-0.14808 0.24727-0.24975 0.33517-0.40302-0.10922 0.15313-0.23184 0.26818-0.43452 0.41941-0.42333 0.31585-0.67434 0.38441-0.89562 0.24473-0.17762-0.11211-0.21258-0.21107-0.21369-0.60462-0.0013-0.42291 0.07051-0.66058 0.31798-1.0542 0.16678-0.2653 0.16793-0.26634 0.14272-0.12588-0.01397 0.0779-0.02392 0.29949-0.02209 0.49245 0.0039 0.4073 0.0494 0.51552 0.26703 0.63365 0.24936 0.13534 0.51601 0.0334 0.96594-0.36924 0.03042-0.0272 0.05859-0.053 0.08463-0.0774l-0.0045 0.0285 0.19616 0.23231-0.08647 0.27772c-0.1597 0.51284-0.14659 0.65862 0.03086 0.7004 0.15271 0.036 0.35483-0.44075 0.35483-0.44075l0.22246-0.45274 0.24405-0.0351c0.65368-0.0518 1.1445-0.17626 1.4619-0.53287l0.11999-0.13485-0.11039 0.32804c-0.06304 0.19441-0.11422 0.38817-0.11376 0.43055 8.73e-4 0.0696 0.01296 0.0638 0.12678-0.0604 0.06926-0.0756 0.18268-0.20744 0.25202-0.29297 0.1108-0.13668 0.33673-0.26745 0.38266-0.22152 0.0077 8e-3 -0.03134 0.17273-0.08676 0.36672-0.11223 0.39266-0.12468 0.5636-0.05135 0.7054 0.12751 0.24657 0.36041 0.16808 0.81703-0.27529 0.17729-0.17216 0.19109-0.17373 0.22622-0.0261 0.01113 0.0468 0.07493 0.13804 0.14178 0.20284 0.17314 0.16781 0.34264 0.16497 0.5806-0.01 0.09554-0.0701 0.23968-0.14818 0.32032-0.17343 0.08062-0.0252 0.17323-0.057 0.20576-0.0705 0.04147-0.0172 0.05918-9e-3 0.05918 0.0279 0 0.1037 0.14709 0.22878 0.29194 0.2482 0.22046 0.0296 0.37893-0.0412 0.58704-0.26217l0.18596-0.1974v0.24866c0 0.19708 0.01331 0.26336 0.06438 0.31972 0.1149 0.12685 0.26492 0.0756 0.60155-0.20537l0.15887-0.13257 0.0512 0.099c0.10275 0.1987 0.29095 0.1947 0.51984-0.0111 0.09306-0.0837 0.17765-0.15213 0.18794-0.15213 0.0103 0 0.02326 0.0875 0.02881 0.19437 0.0096 0.18478 0.01484 0.19493 0.10454 0.20522 0.10656 0.0122 0.30744-0.0944 0.53361-0.28341l0.14778-0.12346 0.02536 0.0979c0.06081 0.23465 0.34046 0.37106 0.64305 0.31367 0.20275-0.0384 0.27231-0.0737 0.472-0.23929 0.08701-0.0721 0.16489-0.13119 0.17308-0.13119 0.0082 0 0.03287 0.0915 0.05487 0.20324 0.07297 0.37091 0.25575 0.39192 0.71793 0.0826 0.1515-0.10141 0.28016-0.18438 0.2859-0.18438 0.0057 0 0.02649 0.0598 0.04616 0.13278 0.05545 0.20593 0.19924 0.30674 0.43748 0.30674 0.34095 0 0.66218-0.14293 1.037-0.46146l0.1723-0.14639 0.09023 0.22989c0.12424 0.31666 0.29661 0.48322 0.52261 0.50493 0.21496 0.0207 0.34814-0.0251 0.63533-0.21805 0.27194-0.18275 0.5876-0.33326 0.76092-0.3628l0.12232-0.0209 0.16506 0.2796c0.23194 0.393 0.25235 0.39131 0.77875-0.0643 0.11442-0.099 0.21592-0.18007 0.22558-0.18007 0.0096 0 0.1195 0.14834 0.24409 0.32963 0.29031 0.4224 0.34623 0.48193 0.45224 0.48106 0.15721-1e-3 0.54497-0.16082 0.8767-0.36072 0.17925-0.10801 0.33572-0.20091 0.34775-0.20646 0.01205-6e-3 0.14623 0.1401 0.29822 0.32368 0.35102 0.42399 0.41648 0.46458 0.74502 0.4619 0.33596-3e-3 0.62216-0.0974 1.2988-0.42951 0.84977-0.41711 1.4751-0.81714 1.5255-0.9758 0.01824-0.0574-0.02427-0.11864-0.21755-0.31323-0.13212-0.13301-0.24023-0.25274-0.24023-0.26608 0-0.0134 0.05437-0.0955 0.12078-0.1825 0.17865-0.23403 0.31019-0.51553 0.40302-0.86238 0.10674-0.39884 0.17369-0.92825 0.13262-1.0486-0.01702-0.0499-0.21137-0.28241-0.43189-0.51662-0.30359-0.32245-0.39599-0.40722-0.45566-0.40648-0.0062 0-0.012 8.7e-4 -0.01768 3e-3 -0.15012 0.046-0.5126 0.3382-0.99482 0.80197-0.27428 0.26379-0.61889 0.59372-0.76576 0.73318l-0.26703 0.25356-0.04566-0.11113c-0.0251-0.0611-0.19095-0.30073-0.36855-0.53247-0.27146-0.35422-0.33737-0.42131-0.41356-0.42129-0.13497 0-0.44591 0.16013-0.91483 0.47101-0.278 0.1843-0.42982 0.26617-0.45219 0.2438-0.01855-0.0186-0.09645-0.12886-0.17313-0.24519-0.18687-0.28349-0.26207-0.30725-0.53995-0.17045-0.22957 0.11302-0.78111 0.5561-0.9957 0.79989l-0.1352 0.15357-0.16922-0.31393c-0.18383-0.341-0.2467-0.41457-0.38355-0.44872-0.17771-0.0443-0.60543 0.10941-1.0323 0.37107l-0.14149 0.0867-0.16278-0.42683c-0.18886-0.49513-0.24212-0.55347-0.44858-0.49161-0.17159 0.0514-0.35617 0.25693-0.35617 0.40004 0 0.0359 0.07815 0.2339 0.07815 0.2339l0.2956 0.69866c0.03959 0.0321 0.07721 0.0537 0.10885 0.0422l-0.07944 0.0996c-0.04368 0.0548-0.08572 0.0926-0.09345 0.084-0.0077-9e-3 -0.07115-0.172-0.1409-0.36315-0.0775-0.21243-0.15162-0.36083-0.19066-0.38173-0.08916-0.0477-0.26092 0.0395-0.48998 0.24886-0.10121 0.0925-0.19039 0.16176-0.19824 0.15391-0.0079-8e-3 -0.04977-0.12777-0.0931-0.26648-0.06821-0.21833-0.0901-0.25352-0.16318-0.26217-0.08263-0.01-0.16588 0.0384-0.42089 0.2441-0.08817 0.0711-0.17917 0.10668-0.32358 0.12643-0.23059 0.0315-0.32709 0.0855-0.4569 0.25568-0.0825 0.10817-0.09051 0.12343-0.06012 0.27614 0.0053-0.0427 0.02959-0.05 0.11618-0.05 0.06461 0 0.11746 9e-3 0.11746 0.0195 0 0.0107-0.04407 0.0665-0.0979 0.12396-0.06074 0.0649-0.0895 0.086-0.10643 0.073-0.0035-0.0335-0.01013-0.0735-0.0196-0.1194-0.0035-0.017-0.0068-0.0327-0.0096-0.047-8.73e-4 8e-3 -0.0013 0.0162-0.0013 0.0261 0 0.0419 0.0088 0.0976 0.01955 0.12395 0.0031 8e-3 0.0066 0.0131 0.01091 0.0164 0.0066 0.0621 0.0031 0.10176-0.01078 0.11564-0.02134 0.0213-0.04692-0.0366-0.0728-0.16506-0.08257-0.40978-0.09706-0.4581-0.15728-0.52465-0.05004-0.0553-0.0871-0.0642-0.19537-0.0469-0.27862 0.0446-0.72712 0.34927-0.93356 0.63424-0.08749 0.12078-0.09342 0.12353-0.11266 0.0517-0.01117-0.0417-0.02056-0.12426-0.02082-0.18348-4.37e-4 -0.14116-0.05533-0.28131-0.1095-0.2804-0.0237 3.9e-4 -0.16482 0.11704-0.31358 0.2592l-0.27044 0.25851-0.01602-0.18937 2.48e-4 0.0351c4.02e-4 0.0804-0.02933 0.12766-0.13861 0.22028-0.26983 0.22866-0.39786 0.3007-0.39786 0.22389 0-0.0196 0.12062-0.1506 0.26802-0.29109l0.26276-0.25049c0.0013 0.0155 0.0031 0.0327 0.0047 0.0516l8.73e-4 0.0107-3.45e-4 -0.0673-0.0052 5e-3c-0.0134-0.1385-0.02676-0.15004-0.10415-0.15897-0.20454-0.0236-0.51805 0.24761-0.6685 0.57823-0.05704 0.12534-0.3216 0.35637-0.36191 0.31605-0.01122-0.0112 0.04547-0.15117 0.15372-0.29144 0.03182-0.0412 0.33879-0.49937 0.49048-0.72214 0.02078-0.0282 0.0656-0.0916 0.04685-0.13495-4.36e-4 3e-3 -0.0013 5e-3 -0.0017 8e-3l-1.52e-4 -0.0106c-5e-3 0.0382-0.09091 0.15124-0.0838 0.14015-0.15296 0.21793-0.62693 0.93946-0.65553 0.9548-0.02422 0.013-0.06136 3e-3 -0.08444-0.0233-0.0986-0.1114 0.058-0.50778 0.40436-1.0236 0.09841-0.14658 0.23652-0.35833 0.30689-0.47057l0.10602-0.17125c0 0.0361-2.66e-4 0.0776 2.97e-4 0.1206l0.0062 0.47323c4.8e-5 -4.3e-4 1.05e-4 -8.7e-4 1.53e-4 -1e-3 8.73e-4 1e-3 0.0013 3e-3 0.0017 4e-3 0.01576-0.0712 0.0134-0.17211 0.0134-0.32185v-0.30739l-8.73e-4 -1e-3c-0.0013-0.35777-0.03125-0.35647-0.08379-0.36666-0.09562-0.0185-0.30725 0.2341-0.56357 0.67271-0.17749 0.30372-0.23956 0.38394-0.28995 0.37489-0.28663-0.0515-0.32344-0.0466-0.56852 0.0745-0.32784 0.16203-0.59619 0.42169-0.68639 0.6642-0.05208 0.14004-0.08766 0.18842-0.145 0.197-0.06449 0.01-0.07313-4.3e-4 -0.0568-0.0676 0.01056-0.0434 0.02863-0.17027 0.04007-0.28184 0.02435-0.23735-0.04463-0.41259-0.18942-0.48131-0.25215-0.11966-0.86038 0.31673-0.93113 0.66806-0.01275 0.0633-0.07659 0.11784-0.24751 0.21132-0.27087 0.14813-0.34701 0.14121-0.24093 0.0313h-5.2e-5c-0.0347 0.0265-0.06555 0.0199-0.08577-0.0296-0.01087-0.0266 0.0047-0.10804 0.0347-0.18095 0.0677-0.16458 0.25532-0.47382 0.27579-0.45462 0.0048 4e-3 -0.0013 0.0504-0.01183 0.11088 0.0013-8e-3 0.0035-0.0125 0.0049-0.0209l0.06576-0.39005-0.08072-0.0654c-0.06846-0.0554-0.10911-0.0615-0.26688-0.0398-0.38499 0.0529-0.38666 0.0524-0.40698-0.12426-0.01964-0.17056-0.0859-0.27862-0.15471-0.25222-0.04573 0.0175-0.06168-0.0192-0.09558-0.22092-0.0674-0.401-0.61725-0.70322-1.2825-0.7049-0.45689-1e-3 -1.1187 0.13514-1.551 0.31947-5e-3 7e-3 -0.01013 0.0135-0.01545 0.0206-0.0103-0.0106-0.01318-0.0366-0.01318-0.0843 0-0.13068-0.07965-0.29219-0.16719-0.33903-0.25593-0.13697-0.53196 0.0766-1.3099 1.0132-0.24166 0.2909-0.41619 0.47044-0.41619 0.42812 0-0.0127 0.06178-0.20177 0.13728-0.42005 0.25545-0.73855 0.2692-0.89064 0.09508-1.0528-0.23745-0.22122-0.68162 0.0907-1.211 0.85035-0.13848 0.19874-0.25667 0.35648-0.26262 0.35053-0.0059-6e-3 0.01362-0.12336 0.04347-0.26094s0.05678-0.35149 0.05978-0.47537c0.0048-0.20044-0.0057-0.24117-0.09627-0.37003-0.11935-0.18274-0.21045-0.23874-0.53658-0.25815-0.32613-0.0194-0.82026 0.19984-1.152 0.50298l-0.18749 0.17145v-0.18319c0-0.50588-0.28008-0.87202-0.66663-0.87145-0.20189 3.1e-4 -0.36566 0.0596-0.59303 0.21473l-0.21097 0.14396-0.1656-0.12568c-0.38105-0.28925-0.77107-0.41243-1.305-0.41225zm29.227 0.48502 0.31343 0.31001c0.17241 0.17051 0.33052 0.35609 0.35136 0.41238 0.02938 0.0794 0.02597 0.1785-0.01514 0.44139-0.0971 0.62084-0.26012 1.045-0.52053 1.3539l-0.13069 0.15496 0.2488 0.23176c0.13684 0.12746 0.24885 0.24911 0.24885 0.27035 0 0.13086-0.56145 0.48173-1.4264 0.89141-0.79748 0.37771-1.2831 0.51408-1.5798 0.44372-0.17972-0.0426-0.29329-0.12896-0.54306-0.41287-0.13383-0.15213-0.24331-0.28471-0.24331-0.29461 0-0.01 0.03872-4e-3 0.08607 0.0127 0.23878 0.0851 0.57946 5e-3 1.2229-0.28619 0.66056-0.29937 1.3126-0.6696 1.5494-0.87983 0.20225-0.17955 0.2338-0.23927 0.14347-0.27177-0.06458-0.0232-0.14562 0.01-0.55282 0.22691-0.49823 0.26541-1.0058 0.4338-1.0058 0.33368 0-0.0191 0.1397-0.14472 0.31046-0.27911 0.84999-0.66899 1.1524-1.0298 1.3392-1.5981 0.05197-0.15803 0.15448-0.64889 0.17977-0.86075zm-26.718 0.38455c0.02366 1e-3 0.04502 0.0122 0.07765 0.0323 0.1128 0.0693 0.12814 0.15961 0.10405 0.61225-0.0247 0.4646-0.07647 0.77815-0.25821 1.5648-0.07332 0.31738-0.13331 0.62579-0.13331 0.68535 0 0.11845 0.12353 0.28449 0.23672 0.31818 0.05666 0.0169 0.01733 0.0682-0.27837 0.36305-0.19163 0.1911-0.37152 0.34367-0.40564 0.34398-0.03374 2.9e-4 -0.10546-0.0409-0.15942-0.0915-0.1262-0.11834-0.12555-0.19495 0.0058-0.67604 0.07934-0.29047 0.13399-0.42163 0.23063-0.55371 0.52427-0.71652 0.60416-1.3994 0.24633-2.1048l-0.11782-0.23232 0.09568-0.0751c0.05263-0.0413 0.15357-0.10406 0.22429-0.13941 0.0669-0.0334 0.10115-0.0484 0.13158-0.047zm-2.0188 0.0707c0.17928-3.2e-4 0.57909 0.0886 0.70946 0.15783 0.01366 7e-3 0.0031 0.0624-0.02388 0.12257-0.09233 0.2072-0.12673 0.47905-0.0825 0.65192 0.06959 0.272 0.38953 0.51009 0.60091 0.44719 0.10586-0.0315 0.11765-0.15343 0.03492-0.36087-0.06392-0.16027-0.06874-0.20175-0.03474-0.29828 0.02169-0.0617 0.05308-0.11212 0.06973-0.11212 0.0773 0 0.17787 0.27401 0.19254 0.52465 0.02636 0.45041-0.17938 0.88335-0.55178 1.161-0.20298 0.15134-0.22449 0.15936-0.19487 0.0727 0.05555-0.16249 0.08075-0.30197 0.08151-0.45131l8.72e-4 -0.15629-0.10816 0.10018-0.01056 0.13545c-0.01013 0.13016-0.04661 0.31272-0.08107 0.40569-0.06245 0.16851-0.06355 0.16935-0.34914 0.27485-0.491 0.18139-0.76562 0.16876-0.84456-0.0389-0.06436-0.16928-0.01074-1.6097 0.06111-1.8793h-4.36e-4c4.36e-4 -5e-3 0.0013-0.01 0.0017-0.0145-3.67e-4 5e-3 -4.37e-4 0.0126-8.73e-4 0.0145l0.35617 0.0549s0.03012 0.01 0.06725 0.0217c-4.37e-4 -4e-3 -0.0017-7e-3 -0.0031-9e-3 -0.04385-0.0395-0.38335-0.13942-0.40386-0.11891-5e-3 5e-3 -0.0099 0.0161-0.01475 0.0327 0.02335-0.18617 0.06219-0.29896 0.0827-0.45369 0.03632-0.27386 0.18632-0.28451 0.44605-0.285zm-0.10687 0.83372c0.0035 0.0292-0.02174 0.11837-0.0616 0.21532-0.10098 0.24566-0.11321 0.57089-0.0282 0.75007 0.07221 0.15217 0.30192 0.38171 0.49716 0.3478 0.06884-0.0119 0.12101-0.0493 0.16595-0.0977-0.09771 0.0563-0.17232 0.0398-0.30917-0.0323-0.29453-0.15522-0.37137-0.48249-0.21107-0.89918 0.04615-0.11996 0.08394-0.22476 0.08394-0.23291h-5.2e-5c-5e-6 -2e-5 -5.3e-5 -2.8e-4 -5.3e-5 -2.8e-4 -0.0022-6e-3 -0.07834-0.0315-0.13693-0.0508zm0.57333 1.2155c0.04508-0.026 0.0951-0.0674 0.15838-0.12598l0.06908-0.064 0.0079-0.10122c-0.09339 0.0733-0.1518 0.20127-0.23533 0.29119zm27.462-1.8772-0.02357 0.12222c-0.06083 0.31548-0.32577 0.82906-0.70436 1.3653-0.4841 0.68573-0.7925 0.93784-1.0872 0.88884-0.04624-8e-3 -0.18901-0.11846-0.32814-0.25455l-0.24628-0.24093 0.1603-0.13446c0.08819-0.0739 0.52286-0.41617 0.9659-0.76052 0.44302-0.34434 0.90847-0.70707 1.0344-0.80603zm-2.0113 0.10414 0.2643 0.3219c0.28674 0.34924 0.3165 0.43646 0.18467 0.54109-0.51703 0.41035-0.7977 0.61683-0.90929 0.66895-0.07384 0.0345-0.28166 0.13555-0.4618 0.22458-0.36458 0.1802-0.49494 0.2042-0.49444 0.0911 8.73e-4 -0.15003 0.22305-0.42686 0.73879-0.91969 0.5389-0.51497 0.61369-0.60771 0.65449-0.81163zm-5.4222 0.0301 0.12608 0.29872c0.06935 0.16429 0.12102 0.31045 0.11479 0.32477-0.01283 0.0295-0.47798 0.36643-0.49904 0.37618l-0.20562-0.44377s-0.09363-0.22673-0.09008-0.24133c6e-3 -0.0247 0.04658-0.0172 0.10439-0.0172 0.14415 0 0.27662-0.0255 0.37082-0.17368zm3.5945 0.15743c0.02741 0 0.21053 0.27127 0.208 0.30814-8.73e-4 0.0123-0.09525 0.0887-0.20978 0.16986-0.11453 0.0812-0.37433 0.27709-0.57739 0.4354-0.50248 0.39177-0.73527 0.54229-0.66806 0.43199 0.0696-0.11426 0.31191-0.37025 0.7421-0.7841 0.26386-0.25383 0.47972-0.48399 0.47972-0.51142 0-0.0274 0.01144-0.0499 0.0254-0.0499zm-14.86 0.0742c0.04578 8.7e-4 0.1151 0.011 0.22771 0.0309 0.45464 0.0804 0.61853 0.20296 0.54623 0.40837-0.0826 0.23466-0.27617 0.35533-0.33061 0.39593l-0.14728 0.0757c-0.081 0.0417-0.24833 0.0972-0.37186 0.12341-0.12354 0.0262-0.25808 0.0479-0.29897 0.0482-0.0378 2.8e-4 -0.05597-4.4e-4 -0.05769-0.0183-0.05126 9e-3 -0.12654 9e-3 -0.17164-3e-3 -0.06167-0.0158-0.07058-0.0267-0.03357-0.0409 0.02767-0.0106 0.10823-0.0425 0.17898-0.0709l0.07656-0.0307c0.03492-0.10216-0.07949-0.12702-0.07949-0.12702s-0.0067-0.1301 0.03715-0.13683c0.38246-0.0587 0.86338 0.17635 0.86338 0.17635 0-0.0177-0.35256-0.22639-0.86986-0.2025l-2.54e-4 4.3e-4 -3.92e-4 -4.3e-4c2.05e-4 -1e-5 4.32e-4 0 4.36e-4 0l0.11658-0.21157c0.10073-0.19263 0.20322-0.36916 0.22776-0.39231 0.01864-0.0176 0.0409-0.0262 0.08666-0.0254zm-0.38216 0.91924c-0.01907 0.0558-0.05281 0.11947-0.05032 0.14505 0.02689-0.0494 0.05056-0.0761 0.05032-0.14505zm-0.08825-0.89487-0.05467 0.10023c-0.03007 0.0551-0.12162 0.20956-0.20344 0.34314-0.09885 0.16139-0.13888 0.21767-0.19734 0.24311 4e-6 0 0 2.9e-4 0 3.8e-4 0 0.0452-0.14198 0.1514-0.31541 0.23602-0.16132 0.0787-0.18226 0.10738-0.30416 0.35578-0.04875 0.0993-0.09866 0.20356-0.14238 0.30461-0.03457 0.0177-0.16056 0.099-0.29506 0.19057-0.14577 0.0992-0.30985 0.20363-0.36464 0.23196-0.13167 0.0681-0.19096 0.065-0.27015-0.0142-0.12392-0.12392-0.13085-0.4308-0.01807-0.80083 0.04631-0.15197 0.13106-0.2873 0.17922-0.30288 0.04212 0.1031 0.12092 0.159 0.22978 0.16709-0.01641-5e-3 -0.03125-0.011-0.04462-0.0192 0.0031 8.7e-4 5e-3 8.7e-4 0.0057 4.4e-4h4.8e-5l5.3e-5 -5e-5 5.2e-5 -5e-5 4.8e-5 -5e-5v-5e-5l5.3e-5 -6e-5v-2e-4c-2.7e-5 -3.8e-4 -3.1e-4 -8.7e-4 -8.73e-4 -1e-3 -0.14902-0.13973-0.13237-0.21222 0.14144-0.61438l0.114-0.16743 0.05056 0.0551c0.01637 0.0179 0.03426 0.0328 0.05383 0.0449 0.03016 0.0363 0.07098 0.0903 0.11529 0.15501 0.011-0.0266 0.13142-0.14926 0.30754-0.15659-8.72e-4 -0.01-0.0013-0.0192-0.0022-0.0287 0.04468-0.0185 0.09249-0.0408 0.14362-0.0669 0.24651-0.12596 0.49597-0.20574 0.74631-0.23865zm-10.545 0.19769v1e-4c-0.18326-7e-3 -0.80886 0.50851-1.0503 0.67078 0.05202-0.0224 0.18772-0.11013 0.30189-0.19532 0.20283-0.15133 0.56992-0.33122 0.77726-0.38385v-2.8e-4h1.01e-4c0.0077-0.0456 0.01078-0.0747 0.0076-0.0778-0.0087-9e-3 -0.02099-0.0131-0.03653-0.0137zm20.752 0.11153c0.0017 0 0.0031 3.8e-4 0.0035 1e-3 7e-3 9e-3 0.03784 0.0923 0.06854 0.18581l0.05577 0.17011-0.21121 0.239c-0.11617 0.13147-0.29005 0.34526-0.38643 0.47507-0.14918 0.20096-0.20686 0.25107-0.38831 0.33725-0.17787 0.0845-0.21636 0.0933-0.23271 0.0534-0.02972-0.0726 0.09318-0.36856 0.23721-0.57095 0.11332-0.15924 0.14507-0.18308 0.26955-0.20275 0.19769-0.0312 0.26008-0.069 0.41297-0.25038 0.15376-0.1824 0.16068-0.20902 0.06309-0.24286-0.07064-0.0245-0.07061-0.025 0.01392-0.11703 0.04155-0.0453 0.08091-0.0776 0.09399-0.078zm-15.561 0.0365c-0.13194 1e-3 -0.35433 0.11595-0.7211 0.36488-0.04602 0.0313-0.08484 0.0576-0.11762 0.0806 2.2e-5 4.3e-4 7.9e-5 1e-3 1.05e-4 2e-3 0.14474-0.0864 0.23684-0.096 0.34181-0.15862 0.09157-0.0546 0.22098-0.10523 0.3522-0.16511 0.14562-0.0665 0.20437-0.0914 0.2484-0.088-0.02588-0.0239-0.05982-0.036-0.1038-0.0356zm0.1038 0.0356c0.0013 1e-3 0.0026 3e-3 0.0039 3e-3 0.0302 0.0302 0.05487 0.0666 0.05487 0.0809 0 0.11105-0.16766 0.62513-0.36483 1.1187-0.35376 0.8855-0.38954 1.0389-0.30957 1.3269 0.03597 0.12953 0.16334 0.2283 0.29446 0.2283 0.03963 0 0.17627-0.14163 0.36885-0.38222 0.08703-0.10873 0.15255-0.19046 0.20388-0.25757-0.04125 0.0506-0.09017 0.10959-0.14307 0.1721-0.31265 0.36944-0.36958 0.39542-0.53202 0.2431-0.07148-0.067-0.10044-0.13122-0.11707-0.2596-0.02584-0.19944 0.02972-0.39048 0.29218-1.0046 0.22054-0.51602 0.35215-0.88084 0.37949-1.0518 0.01977-0.12359 0.0134-0.14388-0.05938-0.18858-0.0275-0.0169-0.04732-0.0274-0.07166-0.0292zm0.25153 2.1186c0.07916-0.0972 0.12989-0.16376 0.12544-0.16605-0.0013-4.3e-4 -0.0035-2e-3 -0.0069-3e-3 -0.03021 0.05-0.06731 0.10242-0.11856 0.16942zm18.542-2.1275 0.07973 0.14134 0.07968 0.14133-0.15333 0.2133c-0.08434 0.1173-0.17945 0.29113-0.21136 0.38633-0.05843 0.17428-0.09376 0.21894-0.17392 0.21983-0.0278 2.8e-4 -0.0013-0.0708 0.07314-0.19621 0.16583-0.27933 0.25803-0.51467 0.28376-0.72437zm-2.4042 0.12703c2.88e-4 -3e-5 3.84e-4 0 4.36e-4 0 0.01205 0 0.06484 0.11329 0.11732 0.25177l0.09538 0.25178-0.07082 0.14128c-0.03893 0.0777-0.07077 0.16287-0.07077 0.18928 0 0.0535-0.11906 0.1292-0.41955 0.26702-0.24709 0.11334-0.34227 0.13197-0.46156 0.0903-0.10029-0.0351-0.14581-0.13858-0.1089-0.24762 0.01261-0.0373 0.19287-0.22595 0.40054-0.41926 0.20767-0.1933 0.40433-0.39038 0.43704-0.43798 0.03217-0.0469 0.06818-0.0854 0.08078-0.0866zm1.6731 0.0435c0.09617-3e-3 0.07475 0.0866-0.06854 0.34131-0.08226 0.14625-0.16867 0.34962-0.192 0.45194-0.02894 0.12692-0.07448 0.21822-0.14337 0.28729-0.18427 0.18475-0.57944 0.30765-0.70724 0.21993-0.08301-0.057-0.05464-0.21285 0.08988-0.49424 0.17459-0.33997 0.64588-0.72722 0.97282-0.7993 0.01855-4e-3 0.0347-6e-3 0.04844-7e-3zm-16.769 0.0389c-0.0026 0.013 0.0017 0.0185 0.01253 0.0185-0.0039-7e-3 -0.0082-0.0132-0.01253-0.0185zm0.01253 0.0185c0.0026 4e-3 0.0049 9e-3 0.0073 0.0146 0.05949 0.13056-0.03728 0.42638-0.38058 1.1632-0.34588 0.74239-0.38611 0.90774-0.28506 1.1724 0.0309 0.0809 0.0861 0.17415 0.12262 0.2072 0.06371 0.0577 0.0693 0.0575 0.13787-4e-3 0.05331-0.048 0.2311-0.285 0.41624-0.54589-0.01855 0.0243-0.03928 0.0514-0.06245 0.0816-0.12414 0.16154-0.2587 0.31378-0.29902 0.33834-0.06878 0.0419-0.07882 0.0368-0.16318-0.0827-0.06618-0.0938-0.09387-0.17958-0.10489-0.32507-0.01388-0.1835-0.0039-0.22014 0.14154-0.51231 0.37208-0.74823 0.48704-0.99872 0.5393-1.175 0.06133-0.20687 0.04282-0.36884-0.03876-0.33948-0.01314 5e-3 -0.02357 7e-3 -0.03095 7e-3zm3.4585 0.0765c-0.08374-2e-3 -0.31986 0.0427-0.48854 0.0978-0.09547 0.0312-0.27098 0.1079-0.38999 0.17046-0.15438 0.0812-0.2868 0.11756-0.39143 0.10979 0.09991 0.0283 0.25663-9e-3 0.47601-0.11231 0.25556-0.12048 0.50125-0.19812 0.74992-0.23702 0.0299-5e-3 0.05363-0.01 0.07493-0.0191-3.92e-4 -6e-3 -0.01157-9e-3 -0.0309-0.01zm16.133 0.0678c0.0247 0-0.04177 0.0841-0.22453 0.30551-0.49058 0.59438-0.75433 1.0716-0.75433 1.3649v0.15769l-0.28733 0.22206c-0.27667 0.2138-0.41054 0.28093-0.47992 0.24073-0.01798-0.0104-0.10237-0.13224-0.18754-0.27069l-0.15486-0.25173-0.14158 0.0197c-0.19079 0.0266-0.38053 0.1062-0.62696 0.26311-0.43558 0.27736-0.71658 0.34503-0.9288 0.2237-0.13811-0.079-0.2526-0.22811-0.34681-0.45165-0.08546-0.20277-0.05948-0.2041-0.33433 0.0169-0.25071 0.20162-0.6006 0.34478-0.88438 0.36186-0.22591 0.0136-0.25251 9e-3 -0.34795-0.0668-0.06322-0.0499-0.11968-0.13615-0.1454-0.22226l-0.04199-0.14079-0.17234 0.12064c-0.33459 0.23418-0.61563 0.32119-0.73571 0.22776-0.02697-0.021-0.06686-0.12292-0.08859-0.22647-0.02174-0.10356-0.04767-0.18829-0.05765-0.18829-0.01 0-0.07878 0.0487-0.15288 0.10816-0.19697 0.15808-0.35212 0.21789-0.59754 0.23033-0.264 0.0134-0.40661-0.0547-0.49448-0.23598-0.03151-0.065-0.06026-0.12293-0.06383-0.12866h-5.76e-4c-0.0073-3e-3 -0.09323 0.0564-0.19428 0.13357-0.23887 0.18243-0.36922 0.24539-0.4827 0.2331-0.08575-9e-3 -0.09057-0.0192-0.10008-0.20646-0.0054-0.10649-0.01615-0.19395-0.02396-0.19666h-2.97e-4c-0.0079 0-0.08173 0.0632-0.16417 0.1405-0.22739 0.21321-0.45887 0.23356-0.534 0.0469-0.0206-0.0512-0.04871-0.093-0.0625-0.093s-0.10126 0.0634-0.19438 0.14098c-0.42466 0.35365-0.62294 0.31252-0.62032-0.1286 8.73e-4 -0.12799-0.0068-0.23215-0.01681-0.23147-0.01 8.7e-4 -0.0684 0.0653-0.12985 0.14361-0.13332 0.16987-0.27326 0.2556-0.46022 0.28188-0.18206 0.0256-0.37105-0.048-0.4249-0.16545-0.02222-0.0485-0.04387-0.0931-0.04809-0.0991-0.01894-0.027-0.4145 0.13569-0.56609 0.23281-0.21999 0.14093-0.33854 0.16037-0.47859 0.0786-0.11809-0.069-0.24271-0.23521-0.24291-0.32408 0-0.0303-0.0091-0.0551-0.01999-0.0551-0.01096 0-0.11286 0.0798-0.22652 0.17729-0.23925 0.20524-0.47955 0.3577-0.56377 0.3577-0.03226 0-0.09822-0.0319-0.14654-0.0709-0.13071-0.10542-0.14462-0.28342-0.04749-0.60814 0.07257-0.24259 0.13159-0.33922 0.13159-0.21547 0 0.0659 0.18127 0.2336 0.25246 0.2336 0.11021 0 0.27427-0.0985 0.50052-0.30045 0.12625-0.1127 0.23128-0.20095 0.23335-0.19611 0.17244 0.4013 0.43467 0.48955 0.7627 0.25662 0.19752-0.14025 0.49969-0.25204 0.49969-0.18487 0 0.0696 0.16743 0.19748 0.28579 0.2183 0.18776 0.033 0.38557-0.0352 0.54059-0.1863l0.13832-0.1349 0.01825 0.1656c0.04356 0.39579 0.25168 0.42829 0.648 0.10118l0.14763-0.12183 0.08701 0.097c0.13754 0.15326 0.27561 0.13634 0.4982-0.0611l0.17823-0.15802-0.02527 0.12945c-0.03343 0.17144-0.0087 0.24621 0.08899 0.26921 0.10942 0.0258 0.26136-0.0384 0.472-0.19928l0.17636-0.13466 0.04789 0.0863c0.09739 0.17552 0.20791 0.23987 0.43546 0.25346 0.17924 0.0107 0.23838-2.9e-4 0.39054-0.0726 0.09861-0.0469 0.25981-0.15661 0.35825-0.2439 0.09382-0.0832 0.17146-0.14523 0.17853-0.14302 0-1e-5 -9e-6 0 2.88e-4 0h2.88e-4c-4e-6 0 0 5e-5 0 2.8e-4v3.9e-4c0 9e-3 -0.02265 0.0673-0.05032 0.1294-0.11445 0.25685-0.02811 0.44389 0.20126 0.4358 0.1397-5e-3 0.27629-0.0663 0.50731-0.22781l0.17165-0.11999 0.03758 0.11767c0.02069 0.0647 0.07685 0.15224 0.12485 0.19447 0.07587 0.0668 0.11893 0.0768 0.32957 0.0768 0.21158 0 0.27401-0.0147 0.49251-0.11594 0.13761-0.0638 0.34448-0.19599 0.45972-0.29377l0.20953-0.17778 2.88e-4 0.10494c4.36e-4 0.14493 0.13644 0.40525 0.2644 0.50622 0.23614 0.18631 0.46682 0.14838 0.95039-0.1562 0.21493-0.13538 0.39758-0.22393 0.53702-0.26034 0.11622-0.0303 0.23774-0.0656 0.27005-0.0784 0.04918-0.0195 0.05877-6e-3 0.05893 0.0824 4.37e-4 0.26713 0.15796 0.5261 0.29516 0.48527 0.10888-0.0324 0.33115-0.20673 0.94648-0.74244 0.558-0.48579 0.76349-0.64953 1.0363-0.82554 0.05941-0.0383 0.09739-0.0613 0.11034-0.0613zm-18.223 0.18205h5.2e-5v5e-5h-5.2e-5zm11.31 0.0133c0.0047-2e-5 0.0077 2e-3 0.0091 6e-3 0.0079 0.0227 0.02933 0.11164 0.04759 0.19754 0.03252 0.15306 0.03077 0.15871-0.08815 0.28323-0.15309 0.16028-0.29234 0.25066-0.50998 0.33111-0.21477 0.0794-0.37618 0.0815-0.44917 6e-3 -0.13406-0.1389-0.0017-0.41081 0.29263-0.60061 0.08283-0.0534 0.15919-0.0971 0.16971-0.0971s0.01912 0.0496 0.01912 0.11014c0 0.16672 0.09521 0.14234 0.31546-0.0807 0.09732-0.0986 0.16852-0.15525 0.19368-0.15536zm-7.29 0.0169v1e-4c2.79e-4 -2e-5 4.36e-4 2e-5 8.73e-4 0h2.53e-4v5e-5h4.8e-5v5e-5l5.2e-5 5e-5v5e-5c5e-6 2e-5 -4e-6 8e-5 0 1e-4h5.3e-5c4e-6 1e-5 2.1e-5 9e-5 4.8e-5 1.9e-4v5e-5h5.2e-5l5.2e-5 5e-5v5e-5c9e-6 8e-5 0 1.9e-4 0 2.9e-4 0 9e-3 -0.05286 0.13672-0.11747 0.28307s-0.11753 0.245-0.14292 0.28882c-0.04256 0.0734-0.30604 0.34884-0.55703 0.46467-0.26045 0.1202-0.56069 0.18694-0.97441 0.21661l-0.26475 0.019 0.02235-0.18096c0.01226-0.0995 0.05589-0.2446 0.09692-0.32249 0.08348-0.15849-0.0039-0.13223 0.77939-0.23439 0.43832-0.0572 0.74955-0.18436 0.99853-0.40807 0.08083-0.0726 0.14811-0.1266 0.15812-0.12727zm3.5951 0.0195c0.0076-2.9e-4 0.01445 2.9e-4 0.02043 1e-3 0.13944 0.0268-0.01549 0.25609-0.33918 0.50206-0.19625 0.14912-0.27183 0.18408-0.34671 0.16046-0.02309-7e-3 -0.04195-0.0621-0.04195-0.12193 0-0.0876 0.02959-0.13563 0.15214-0.24731 0.15667-0.14277 0.44146-0.2918 0.5553-0.29472zm2.33 0.0571 0.0097 0.13421c0.01532 0.21141-0.0611 0.3743-0.21414 0.4563-0.17171 0.092-0.22659 0.0921-0.19601 4.3e-4 0.01301-0.0389 0.10844-0.18784 0.21206-0.33091zm-5.3415 0.0446c0.0079 0 0.01318 8.7e-4 0.0151 3e-3 0.0076 7e-3 -0.03632 0.0953-0.09771 0.19581-0.06137 0.10055-0.12883 0.24649-0.1499 0.32428-0.03221 0.11895-0.05512 0.1459-0.14401 0.16981-0.10082 0.0271-0.22308 0.13801-0.46784 0.42436-0.1117 0.13067-0.17432 0.16321-0.17432 0.0906 0-0.0216 0.04629-0.16945 0.10281-0.32854 0.08327-0.23437 0.11638-0.29107 0.17467-0.29902 0.03955-5e-3 0.12208-0.0735 0.18334-0.15143 0.24363-0.30978 0.31391-0.37541 0.43585-0.40698 0.05083-0.0131 0.09827-0.0212 0.12202-0.0214zm1.4982 0.0508c0.06106 0 0.06188 7e-3 0.01558 0.1298-0.02689 0.0714-0.04883 0.192-0.04883 0.26797 0 0.12205-0.0127 0.14541-0.1091 0.20051-0.05999 0.0343-0.1506 0.0624-0.20136 0.0624-0.08193 0-0.09222-0.0113-0.09157-0.10216 0.0017-0.21745 0.26738-0.55857 0.43525-0.55857zm-1.0319 0.0253c-0.01894 0.10779-0.04051 0.1972-0.06428 0.27446 0.01222-0.0385 0.0237-0.0795 0.03383-0.12326 0.01331-0.0575 0.02274-0.10712 0.03047-0.1512zm-0.06428 0.27446c-0.03361 0.10586-0.07351 0.19021-0.11192 0.24088 0.04376-0.0525 0.0798-0.13655 0.11192-0.24088zm-0.11192 0.24088c-7e-3 8e-3 -0.0141 0.0162-0.02143 0.0233-0.0054 5e-3 -0.01043 0.0104-0.0151 0.0152 0.01183-9e-3 0.02409-0.022 0.03653-0.0385zm-3.2945-0.42342c0.0026 9e-5 0.0039 2e-3 0.0039 7e-3 8.73e-4 0.025 0.04229 0.0854 0.09221 0.13426 0.0884 0.0865 0.0896 0.0926 0.04586 0.23776-0.15192 0.50409-0.14819 0.73158 0.01283 0.78418l0.07844 0.0257-0.15258 0.30743c-0.11898 0.23971-0.17051 0.31165-0.23385 0.32656-0.04496 0.0106-0.09885 3e-3 -0.12069-0.0179-0.0614-0.0576-0.03632-0.29702 0.06299-0.60056l0.09068-0.27708-0.11524-0.10801-0.1092-0.0945-0.0047-8e-3c0.19947-0.18993 0.26253-0.29536 0.23934-0.38653-0.0072-0.0284 0.0058-0.0855 0.03164-0.14589-0.01117-6e-3 -0.02248-0.0115-0.03426-0.0161 0.01165-0.0225 0.02331-0.0442 0.03496-0.0648 0.03575-0.0633 0.06671-0.10369 0.0775-0.10321zm17.283 0.63859 0.02392 0.20944c0.033 0.28879 0.09837 0.47541 0.2022 0.57704l0.08796 0.0861-0.2124 0.12573c-0.31465 0.18634-0.60636 0.31779-0.82232 0.37053-0.22405 0.0547-0.21121 0.0542-0.28783 0.0124-0.03282-0.0179-0.15761-0.16978-0.27723-0.3374l-0.21746-0.30471 0.15263-0.0246c0.08394-0.0135 0.23568-0.059 0.3372-0.10108 0.19003-0.0788 0.67561-0.36387 0.89136-0.5233zm-17.667 0.15635-0.14262 0.27881c-0.01951 0.0381-0.03828 0.0731-0.05695 0.10563 0.04455-0.0625 0.08686-0.13126 0.13148-0.21146l0.08652-0.15555z" clip-rule="evenodd" fill="#fff" stroke-linejoin="round" stroke-miterlimit="2" stroke-width=".025356"/>
 </g>
</svg>
